<svg width="100" height="100" viewBox="0 0 100 100" fill="none" xmlns="http://www.w3.org/2000/svg">
<g clip-path="url(#clip0_790_3693)">
<path d="M45.794 2.08743L2.08996 45.7556C-0.259642 48.1032 -0.259642 51.8951 2.08996 54.2428L45.794 97.9109C48.1436 100.259 51.9386 100.259 54.2882 97.9109L72.6127 79.6015C74.717 77.499 74.717 74.0901 72.6127 71.9876C70.5085 69.8851 67.0968 69.8851 64.9926 71.9876L51.1009 85.8678C50.5161 86.4522 49.6286 86.4522 49.0437 85.8678L14.1429 50.9957C13.5581 50.4114 13.5581 49.5246 14.1429 48.9402L49.0437 14.0681C49.6286 13.4838 50.5161 13.4838 51.1009 14.0681L64.9926 27.9483C67.0968 30.0508 70.5085 30.0508 72.6127 27.9483C74.717 25.8458 74.717 22.437 72.6127 20.3345L54.2903 2.02704C51.931 -0.269826 48.1346 -0.251231 45.794 2.08743Z" fill="url(#paint0_linear_790_3693)"/>
<path d="M45.794 2.08743L2.08996 45.7556C-0.259642 48.1032 -0.259642 51.8951 2.08996 54.2428L45.794 97.9109C48.1436 100.259 51.9386 100.259 54.2882 97.9109L72.6127 79.6015C74.717 77.499 74.717 74.0901 72.6127 71.9876C70.5085 69.8851 67.0968 69.8851 64.9926 71.9876L51.1009 85.8678C50.5161 86.4522 49.6286 86.4522 49.0437 85.8678L14.1429 50.9957C13.5581 50.4114 13.5581 49.5246 14.1429 48.9402L49.0437 14.0681C50.4999 12.8128 52.8758 10.2701 56.3648 9.67539C58.9578 9.23343 61.7926 10.2062 64.8693 12.5936C62.8123 10.5384 59.286 7.01618 54.2903 2.02704C51.931 -0.269826 48.1346 -0.251231 45.794 2.08743Z" fill="url(#paint1_linear_790_3693)"/>
<path d="M76.8429 67.9263C78.9472 70.0288 82.3588 70.0288 84.4631 67.9263L97.9801 54.4204C100.33 52.0727 100.33 48.2808 97.9804 45.9334L84.3455 32.3581C82.2363 30.2581 78.8236 30.2611 76.7181 32.3648C74.6138 34.4673 74.6138 37.8762 76.7181 39.9787L85.9271 49.1802C86.512 49.7645 86.512 50.6514 85.9271 51.2357L76.8429 60.3124C74.7387 62.4149 74.7387 65.8238 76.8429 67.9263Z" fill="url(#paint2_linear_790_3693)"/>
<path d="M50.2598 62.0079C56.7768 62.0079 62.0599 56.7292 62.0599 50.2175C62.0599 43.7059 56.7768 38.4271 50.2598 38.4271C43.7428 38.4271 38.4597 43.7059 38.4597 50.2175C38.4597 56.7292 43.7428 62.0079 50.2598 62.0079Z" fill="url(#paint3_linear_790_3693)"/>
</g>
<defs>
<linearGradient id="paint0_linear_790_3693" x1="4587.4" y1="0.319032" x2="8740.56" y2="2536.59" gradientUnits="userSpaceOnUse">
<stop stop-color="#4285EB"/>
<stop offset="1" stop-color="#2EC7FF"/>
</linearGradient>
<linearGradient id="paint1_linear_790_3693" x1="5144.46" y1="0.31873" x2="3093.18" y2="10601.9" gradientUnits="userSpaceOnUse">
<stop stop-color="#29CDFF"/>
<stop offset="0.378601" stop-color="#148EFF"/>
<stop offset="1" stop-color="#0A60FF"/>
</linearGradient>
<linearGradient id="paint2_linear_790_3693" x1="1789.71" y1="-471.558" x2="-879.322" y2="3702.58" gradientUnits="userSpaceOnUse">
<stop stop-color="#FA816E"/>
<stop offset="0.414726" stop-color="#F74A5C"/>
<stop offset="1" stop-color="#F51D2C"/>
</linearGradient>
<linearGradient id="paint3_linear_790_3693" x1="1646.29" y1="-803.185" x2="758.228" y2="2749.21" gradientUnits="userSpaceOnUse">
<stop stop-color="#FA8E7D"/>
<stop offset="0.512635" stop-color="#F74A5C"/>
<stop offset="1" stop-color="#F51D2C"/>
</linearGradient>
<clipPath id="clip0_790_3693">
<rect width="100" height="100" fill="white" transform="translate(0 -0.000854492)"/>
</clipPath>
</defs>
</svg>
