<svg width="100" height="100" viewBox="0 0 100 100" fill="none" xmlns="http://www.w3.org/2000/svg">
<path d="M99.0138 41.0889C98.7425 40.8736 96.2107 38.9618 90.8713 38.9618C89.4615 38.968 88.0546 39.0889 86.6643 39.3235C85.6309 32.2403 79.7748 28.7869 79.5123 28.632L78.0785 27.8052L77.1355 29.1659C75.9546 30.9938 75.0925 33.0088 74.5865 35.1253C73.6305 39.1686 74.2118 42.9662 76.2657 46.2129C73.7855 47.5951 69.8069 47.9353 69.0018 47.9654H3.13026C1.40972 47.9678 0.0135775 49.3582 0.00420084 51.0786C-0.0726317 56.8493 0.905059 62.5855 2.88913 68.005C5.15828 73.9558 8.53415 78.3392 12.9262 81.0217C17.8478 84.0358 25.8439 85.7582 34.9077 85.7582C39.0024 85.7711 43.0893 85.4005 47.115 84.6516C52.711 83.6241 58.0959 81.6681 63.0468 78.8644C67.1262 76.502 70.7976 73.4967 73.9192 69.9641C79.1379 64.0564 82.2469 57.4769 84.559 51.6297H85.4805C91.1943 51.6297 94.7081 49.3432 96.6457 47.4271C97.9334 46.2051 98.9386 44.7165 99.5909 43.0653L100 41.8683L99.0138 41.0889Z" fill="#2496ED"/>
<path d="M9.23604 46.0363H18.0631C18.4888 46.0363 18.8338 45.6912 18.8338 45.2656V37.403C18.8362 36.9772 18.493 36.6303 18.0674 36.6279C18.066 36.6279 18.0645 36.6279 18.0631 36.6279H9.23604C8.81031 36.6279 8.46533 36.973 8.46533 37.3986V37.403V45.2655C8.46533 45.6912 8.81031 46.0363 9.23604 46.0363V46.0363Z" fill="#2496ED"/>
<path d="M21.4002 46.0363H30.2272C30.653 46.0363 30.998 45.6912 30.998 45.2656V37.403C31.0003 36.9772 30.6572 36.6303 30.2314 36.6279C30.23 36.6279 30.2285 36.6279 30.2271 36.6279H21.4C20.9719 36.6279 20.625 36.9749 20.625 37.403V45.2655C20.6275 45.6919 20.9738 46.0363 21.4002 46.0363" fill="#2496ED"/>
<path d="M33.7494 46.0363H42.5764C43.0022 46.0363 43.3471 45.6912 43.3471 45.2656V37.403C43.3495 36.9772 43.0064 36.6303 42.5806 36.6279C42.5792 36.6279 42.5777 36.6279 42.5763 36.6279H33.7492C33.3235 36.6279 32.9785 36.973 32.9785 37.3986V37.403V45.2655C32.9787 45.6912 33.3238 46.0363 33.7494 46.0363V46.0363Z" fill="#2496ED"/>
<path d="M45.9523 46.0363H54.7794C55.2058 46.0363 55.5521 45.6921 55.5545 45.2656V37.403C55.5545 36.9749 55.2075 36.6279 54.7794 36.6279H45.9523C45.5266 36.6279 45.1816 36.973 45.1816 37.3986V37.403V45.2655C45.1816 45.6912 45.5268 46.0363 45.9523 46.0363V46.0363Z" fill="#2496ED"/>
<path d="M21.4 34.7249H30.2271C30.6534 34.7225 30.9978 34.3762 30.9978 33.9499V26.0874C30.9978 25.6616 30.6527 25.3167 30.2271 25.3167H21.4C20.9738 25.3167 20.6274 25.6609 20.625 26.0874V33.9499C20.6274 34.377 20.9729 34.7225 21.4 34.7249Z" fill="#2496ED"/>
<path d="M33.7492 34.7249H42.5763C43.0026 34.7225 43.347 34.3762 43.347 33.9499V26.0874C43.347 25.6616 43.0019 25.3167 42.5763 25.3167H33.7492C33.3235 25.3167 32.9785 25.6618 32.9785 26.0874V33.9499C32.9785 34.3762 33.3229 34.7225 33.7492 34.7249Z" fill="#2496ED"/>
<path d="M45.9523 34.7249H54.7794C55.2065 34.7225 55.5521 34.377 55.5545 33.9499V26.0874C55.5521 25.6609 55.2058 25.3167 54.7794 25.3167H45.9523C45.5266 25.3167 45.1816 25.6618 45.1816 26.0874V33.9499C45.1816 34.3762 45.5261 34.7225 45.9523 34.7249Z" fill="#2496ED"/>
<path d="M45.9523 23.4091H54.7794C55.2058 23.4091 55.5521 23.0647 55.5545 22.6384V14.7714C55.5521 14.345 55.2058 14.0007 54.7794 14.0007H45.9523C45.5266 14.0007 45.1816 14.3457 45.1816 14.7714V22.6383C45.1816 23.064 45.5268 23.4091 45.9523 23.4091Z" fill="#2496ED"/>
<path d="M58.2629 46.0363H67.09C67.5164 46.0363 67.8626 45.6921 67.865 45.2656V37.403C67.865 36.9749 67.5181 36.6279 67.09 36.6279H58.2629C57.8373 36.6279 57.4922 36.973 57.4922 37.3986V37.403V45.2655C57.4922 45.6912 57.8373 46.0363 58.2629 46.0363" fill="#2496ED"/>
</svg>
