<svg width="100" height="100" viewBox="0 0 100 100" fill="none" xmlns="http://www.w3.org/2000/svg">
<path fill-rule="evenodd" clip-rule="evenodd" d="M51.8161 3.00002C49.5968 3.00544 47.3451 4.13046 45.8491 6.35903L1.27358 73.6192C-2.64405 81.8659 3.03263 89.7481 10.7278 91.9833C25.182 95.2002 38.4199 86.6009 38.4199 86.6009C57.9195 74.1326 70.513 67.0947 70.513 67.0947C86.0535 59.2225 99.6478 68.8818 99.6766 68.9023L57.6029 6.35903C56.2242 4.1108 54.0355 2.99513 51.8161 3.00002ZM51.8343 9.91129C53.5807 9.90586 55.3034 10.7862 56.3883 12.5554C66.6639 27.7971 78.3423 43.5109 88.1752 59.0277C88.1752 59.0277 78.7911 54.1483 66.5489 60.3497C66.5489 60.3497 56.6355 65.8897 41.2911 75.7012C41.2911 75.7012 30.8768 82.4638 19.5028 79.9324C13.4471 78.1736 8.9773 71.9698 12.0599 65.4804L47.141 12.5554C48.3181 10.8016 50.0877 9.91519 51.8343 9.91129Z" fill="#FF7102"/>
<path fill-rule="evenodd" clip-rule="evenodd" d="M86.9167 68.8908C70.1056 69.306 55.5182 85.0019 43.6366 89.6405C61.7001 111.335 115.781 85.598 95.5295 71.2201C92.9602 69.4698 90.0504 68.8134 86.9167 68.8908ZM92.8825 75.1108C102.416 84.6274 66.6134 101.182 51.3894 90.2962C57.2228 89.8461 81.7734 66.2418 92.8825 75.1108Z" fill="#FF7102"/>
</svg>
