<?xml version="1.0" standalone="no"?>
<!DOCTYPE svg PUBLIC "-//W3C//DTD SVG 20010904//EN"
 "http://www.w3.org/TR/2001/REC-SVG-20010904/DTD/svg10.dtd">
<svg version="1.0" xmlns="http://www.w3.org/2000/svg"
 width="1290.000000pt" height="1290.000000pt" viewBox="0 0 1290.000000 1290.000000"
 preserveAspectRatio="xMidYMid meet">
<metadata>
Created by potrace 1.14, written by Peter Selinger 2001-2017
</metadata>
<g transform="translate(0.000000,1290.000000) scale(0.100000,-0.100000)"
fill="#000000" stroke="none">
<path d="M6314 11860 c-34 -15 -92 -45 -130 -67 -38 -22 -90 -52 -116 -67 -97
-53 -153 -85 -648 -364 -278 -157 -561 -317 -630 -355 -150 -85 -179 -101
-261 -148 -96 -55 -128 -73 -194 -109 -33 -18 -76 -42 -95 -53 -19 -11 -55
-31 -80 -45 -25 -13 -49 -28 -55 -32 -5 -4 -35 -21 -65 -37 -86 -47 -402 -224
-435 -244 -16 -10 -50 -29 -75 -43 -25 -13 -106 -59 -180 -101 -74 -43 -163
-93 -197 -111 -75 -41 -162 -91 -183 -104 -8 -6 -22 -13 -30 -17 -8 -4 -48
-26 -88 -50 -41 -24 -75 -43 -77 -43 -2 0 -26 -13 -52 -28 -60 -35 -454 -258
-506 -286 -55 -30 -106 -82 -130 -135 l-22 -46 0 -2420 0 -2420 26 -55 c37
-79 33 -76 524 -364 44 -26 87 -51 95 -57 53 -32 353 -209 356 -209 2 0 54
-31 116 -68 62 -38 120 -71 128 -75 8 -4 27 -15 42 -25 39 -25 280 -166 293
-171 5 -2 12 -7 15 -11 3 -3 25 -17 50 -31 25 -13 47 -26 50 -29 6 -6 43 -27
111 -64 26 -14 67 -39 92 -56 25 -16 47 -30 50 -30 3 0 42 -22 87 -50 45 -27
83 -50 85 -50 3 0 155 -90 185 -110 8 -6 22 -13 30 -17 8 -3 33 -18 55 -33 22
-15 47 -30 55 -33 8 -4 32 -17 52 -29 39 -24 262 -155 338 -199 25 -15 142
-84 260 -154 118 -70 231 -137 250 -148 19 -10 79 -46 133 -78 54 -33 102 -59
107 -59 6 0 10 -4 10 -10 0 -5 4 -10 10 -10 5 0 78 -41 162 -91 84 -51 167
-100 183 -109 17 -10 90 -52 162 -95 73 -42 154 -83 180 -91 44 -13 123 -11
148 4 6 4 16 7 23 8 8 2 23 11 34 21 11 10 21 16 22 14 1 -5 75 36 138 75 21
13 40 24 42 24 5 0 262 144 286 160 8 6 22 13 30 17 8 4 77 43 155 86 163 93
180 103 260 147 33 18 195 110 360 203 165 94 320 181 345 195 25 14 74 42
110 62 36 20 85 48 110 62 114 63 336 189 350 198 8 6 21 13 29 17 15 7 335
187 416 235 28 16 61 34 75 41 14 6 27 14 30 17 3 3 23 14 45 26 22 11 58 31
80 43 22 13 81 46 130 74 50 27 107 61 127 74 21 12 40 23 42 23 3 0 27 13 54
29 27 16 76 44 108 62 33 18 75 41 94 52 19 11 53 30 75 42 22 13 83 47 136
77 52 30 102 58 110 61 8 4 30 17 49 28 19 12 91 53 159 91 68 39 131 75 139
82 38 31 66 65 86 106 l21 45 1 2397 c1 1319 -2 2415 -6 2438 -12 63 -59 131
-120 171 -45 30 -695 415 -765 454 -11 6 -39 23 -62 38 -24 15 -44 27 -46 27
-3 0 -57 32 -121 70 -64 39 -120 70 -126 70 -5 0 -10 5 -10 10 0 6 -4 10 -9
10 -6 0 -172 95 -261 150 -55 33 -229 135 -247 144 -13 6 -23 14 -23 19 0 4
-5 7 -11 7 -6 0 -43 20 -83 44 -39 24 -147 88 -241 143 -93 55 -285 168 -425
250 -140 83 -271 160 -290 171 -119 67 -760 447 -782 463 -15 10 -29 19 -32
19 -3 0 -46 25 -96 55 -50 30 -93 55 -95 55 -2 0 -47 27 -100 60 -53 33 -98
60 -100 60 -3 0 -35 19 -72 42 -165 102 -235 116 -339 68z"/>
</g>
</svg>
